<svg xmlns="http://www.w3.org/2000/svg" viewBox="0 0 794 1123" preserveAspectRatio="xMidYMid meet">
<path d="M 401,602 403,633 508,633 501,625 508,610 499,603 435,613 423,601 Z" fill="#925fd3" stroke="none"/>
<path d="M 136,603 148,633 159,617 174,634 194,626 236,633 246,612 218,608 210,628 203,608 Z" fill="#925fd3" stroke="none"/>
<path d="M 264,612 276,634 335,633 345,612 364,634 382,628 379,608 353,601 302,608 294,627 271,620 291,602 Z" fill="#925fd3" stroke="none"/>
<path d="M 528,602 530,633 553,619 563,633 571,613 580,633 618,621 628,633 636,613 644,633 682,632 680,600 591,613 580,597 553,617 553,602 Z" fill="#925fd3" stroke="none"/>
<path d="M 583,516 573,546 614,566 576,565 570,579 623,580 630,553 589,531 622,531 629,518 Z" fill="#925fd3" stroke="none"/>
<path d="M 504,515 484,533 485,567 511,585 544,579 559,556 555,531 533,514 Z" fill="#925fd3" stroke="none"/>
<path d="M 320,514 277,515 277,583 296,583 297,542 320,529 Z" fill="#925fd3" stroke="none"/>
<path d="M 193,519 197,532 226,528 235,541 195,549 192,577 255,583 251,525 231,513 Z" fill="#925fd3" stroke="none"/>
<path d="M 652,497 650,512 639,516 639,528 650,532 652,572 665,584 688,584 689,571 669,562 669,532 688,528 688,516 670,513 669,498 Z" fill="#925fd3" stroke="none"/>
<path d="M 375,493 375,583 429,584 459,568 469,531 454,503 428,492 Z" fill="#925fd3" stroke="none"/>
<path d="M 125,491 95,513 92,557 119,583 160,583 176,569 160,556 129,561 114,534 132,511 163,518 176,504 Z" fill="#925fd3" stroke="none"/>
<path d="M 363,488 369,596 705,585 674,485 562,515 Z" fill="#fcfbfd" stroke="none"/>
<path d="M 81,513 85,571 135,600 302,596 308,547 332,535 323,500 194,505 151,478 Z" fill="#fcfbfd" stroke="none"/>
<path d="M 398,525 398,537 405,543 417,545 429,555 439,551 435,540 438,527 429,527 415,518 407,518 Z" fill="#343460" stroke="none"/>
<path d="M 139,510 121,519 115,540 124,557 144,563 162,553 168,532 158,516 Z" fill="#343460" stroke="none"/>
<path d="M 680,485 725,548 713,574 732,568 741,549 731,523 742,513 Z" fill="#343460" stroke="none"/>
<path d="M 114,476 26,491 52,517 52,573 78,602 61,560 77,505 64,495 Z" fill="#343460" stroke="none"/>
<path d="M 132,473 327,487 347,539 332,424 524,491 670,482 369,407 Z" fill="#343460" stroke="none"/>
</svg>