<svg xmlns="http://www.w3.org/2000/svg" viewBox="0 0 2563 1229" width="2563" height="1229" preserveAspectRatio="xMidYMid meet">
<path d="M 497,746 497,754 523,779 558,779 551,778 551,772 524,767 526,761 541,757 515,757 509,753 512,746 527,742 524,738 510,735 Z" fill="#343483" stroke="none"/>
<path d="M 1789,532 1473,363 1029,340 289,582 497,603 428,689 259,637 314,728 622,695 539,725 636,798 255,793 843,882 1003,809 1011,613 1204,585 943,579 1694,470 1453,761 1534,763 1600,556 Z" fill="#343483" stroke="none"/>
<path d="M 633,766 552,769 557,776 563,776 561,781 541,781 541,784 587,785 589,782 594,785 599,772 Z" fill="#261a59" stroke="none"/>
<path d="M 633,749 544,753 543,756 546,757 542,761 625,759 624,755 Z" fill="#261a59" stroke="none"/>
<path d="M 260,735 258,735 256,759 252,761 248,770 248,786 251,793 254,786 264,785 272,780 270,778 266,782 259,783 250,775 252,767 263,761 268,753 268,744 264,749 260,748 Z" fill="#261a59" stroke="none"/>
<path d="M 634,741 613,737 630,732 626,730 534,738 535,742 523,745 Z" fill="#261a59" stroke="none"/>
<path d="M 497,744 524,725 529,727 521,732 625,722 528,725 546,719 541,717 509,730 Z" fill="#261a59" stroke="none"/>
<path d="M 251,685 254,718 259,716 265,727 267,727 259,705 257,692 254,690 253,685 Z" fill="#261a59" stroke="none"/>
<path d="M 1486,647 1458,650 1432,668 1430,649 1380,649 1380,811 1433,810 1435,716 1456,695 1486,693 Z" fill="#261a59" stroke="none"/>
<path d="M 1195,665 1210,699 1269,686 1291,710 1224,718 1197,734 1187,772 1204,801 1256,814 1293,794 1295,811 1344,811 1344,708 1324,664 1255,646 Z" fill="#261a59" stroke="none"/>
<path d="M 845,625 789,649 762,721 778,797 832,836 875,828 905,797 882,765 839,789 807,759 804,714 824,678 852,672 882,696 906,666 885,639 Z" fill="#261a59" stroke="none"/>
<path d="M 2047,620 2003,648 1997,697 2020,721 2104,753 2070,768 2009,748 1992,788 2051,809 2119,803 2154,772 2152,721 2057,684 2051,669 2091,659 2135,672 2151,635 Z" fill="#261a59" stroke="none"/>
<path d="M 1846,620 1809,637 1784,666 1773,697 1778,749 1823,800 1861,810 1914,804 1942,788 1965,757 1973,719 1966,674 1953,651 1918,625 Z" fill="#261a59" stroke="none"/>
<path d="M 290,658 334,680 431,667 295,661 292,640 443,645 307,655 436,664 462,622 292,616 454,632 290,628 Z" fill="#261a59" stroke="none"/>
<path d="M 1064,614 995,659 983,742 1033,803 1121,811 1170,775 1140,748 1097,770 1055,760 1035,731 1036,693 1067,660 1103,658 1137,679 1169,647 1123,617 Z" fill="#261a59" stroke="none"/>
<path d="M 278,662 286,603 352,610 420,608 334,607 282,596 275,639 Z" fill="#261a59" stroke="none"/>
<path d="M 1325,571 1246,575 1239,578 1250,578 1252,580 1249,583 1325,573 Z" fill="#261a59" stroke="none"/>
<path d="M 2200,573 2200,619 2170,621 2170,666 2200,668 2205,775 2240,806 2304,804 2313,794 2302,758 2271,762 2258,750 2258,668 2305,666 2305,621 2258,619 2258,564 Z" fill="#261a59" stroke="none"/>
<path d="M 1559,550 1557,550 1536,575 1536,578 1533,579 1533,581 1535,581 1536,578 1545,579 Z" fill="#261a59" stroke="none"/>
<path d="M 1745,548 1688,556 1687,634 1619,619 1566,656 1552,737 1589,796 1648,810 1691,789 1691,806 1745,806 Z" fill="#261a59" stroke="none"/>
<path d="M 426,514 366,533 366,535 378,534 370,538 369,542 400,525 417,520 Z" fill="#261a59" stroke="none"/>
<path d="M 1612,498 1574,499 1575,495 1589,493 1588,489 1482,519 1524,508 Z" fill="#261a59" stroke="none"/>
<path d="M 2107,923 2109,931 2119,937 2127,936 2135,930 2144,932 2148,930 2134,928 2127,933 2118,934 2111,929 2111,926 2151,925 2151,923 Z" fill="#f9f8fe" stroke="none"/>
<path d="M 1449,926 1449,933 1453,937 1461,938 1468,935 1472,931 1473,929 1473,922 1471,921 1457,921 1452,923 Z" fill="#f9f8fe" stroke="none"/>
<path d="M 1683,914 1683,934 1708,934 1715,929 1716,921 1715,918 1710,914 Z" fill="#f9f8fe" stroke="none"/>
<path d="M 2256,902 2251,907 2249,912 2250,927 2255,933 2259,935 2269,935 2273,931 2275,931 2278,926 2278,910 2272,903 2268,901 Z" fill="#f9f8fe" stroke="none"/>
<path d="M 1542,901 1530,903 1522,909 1521,949 1505,950 1505,952 1518,953 1523,949 1524,911 1532,905 1542,903 Z" fill="#f9f8fe" stroke="none"/>
<path d="M 1166,901 1158,907 1155,914 1155,922 1158,930 1162,934 1174,935 1178,933 1184,925 1184,911 1178,903 1174,901 Z" fill="#f9f8fe" stroke="none"/>
<path d="M 2106,909 2106,912 2111,912 2112,911 2134,912 2134,908 2132,904 2129,901 2124,899 2116,899 2112,901 2108,905 Z" fill="#f9f8fe" stroke="none"/>
<path d="M 1759,909 1759,912 1788,911 1786,905 1781,900 1778,899 1769,899 1765,901 1761,905 Z" fill="#f9f8fe" stroke="none"/>
<path d="M 1833,899 1830,902 1832,908 1863,919 1866,928 1862,942 1864,944 1868,937 1865,919 1858,913 1837,907 1833,903 1843,901 1854,906 1858,904 1846,899 Z" fill="#f9f8fe" stroke="none"/>
<path d="M 1201,898 1197,896 1203,924 1189,947 1162,951 1144,942 1136,924 1142,897 1133,916 1138,937 1155,952 1186,951 1205,927 Z" fill="#f9f8fe" stroke="none"/>
<path d="M 1748,894 1745,895 1739,906 1737,917 1730,912 1735,926 1732,940 1735,939 1738,929 1742,938 1746,940 1740,925 1740,913 Z" fill="#f9f8fe" stroke="none"/>
<path d="M 2219,891 2217,893 2221,904 2221,949 2205,950 2208,953 2220,952 2224,946 2224,907 Z" fill="#f9f8fe" stroke="none"/>
<path d="M 2053,887 2057,949 2074,953 2080,948 2080,888 2077,949 2060,950 2059,887 Z" fill="#f9f8fe" stroke="none"/>
<path d="M 2162,884 2158,948 2164,953 2181,949 2182,913 2190,904 2200,907 2203,948 2203,907 2191,901 2179,913 2179,949 2161,949 2161,887 2176,886 Z" fill="#f9f8fe" stroke="none"/>
<path d="M 1209,887 1209,935 1218,950 1237,954 1256,944 1226,951 1214,943 1212,886 1229,887 1235,935 1252,927 1253,887 1270,886 1274,934 1270,884 1251,887 1243,932 1232,928 1231,887 Z" fill="#f9f8fe" stroke="none"/>
<path d="M 1862,889 1844,882 1827,883 1814,892 1808,906 1800,895 1805,923 1760,923 1768,936 1781,936 1784,932 1770,934 1764,927 1805,925 1809,912 1814,915 1813,899 1822,888 Z" fill="#f9f8fe" stroke="none"/>
<path d="M 1323,883 1316,882 1305,888 1298,883 1287,883 1282,887 1281,945 1285,952 1299,953 1301,950 1284,949 1284,887 1300,886 1303,893 Z" fill="#f9f8fe" stroke="none"/>
<path d="M 1683,879 1683,898 1707,898 1712,895 1713,885 1709,880 Z" fill="#f9f8fe" stroke="none"/>
<path d="M 1375,891 1373,917 1384,932 1416,923 1443,952 1477,948 1448,951 1432,935 1444,912 1473,910 1469,900 1440,905 1469,904 1441,911 1429,928 1412,921 1389,931 1377,920 1376,895 1390,882 1411,887 1391,879 Z" fill="#f9f8fe" stroke="none"/>
<path d="M 1360,876 1352,890 1350,915 1361,938 1384,953 1405,953 1420,943 1406,950 1387,951 1365,940 1353,916 1353,897 Z" fill="#f9f8fe" stroke="none"/>
<path d="M 1875,867 1874,882 1867,888 1867,897 1875,904 1876,942 1887,953 1909,952 1911,949 1887,950 1878,940 1877,900 1870,899 1870,887 1877,886 Z" fill="#f9f8fe" stroke="none"/>
<path d="M 1063,866 1092,919 1093,949 1113,952 1117,919 1146,866 1114,919 1113,950 1095,949 1095,919 Z" fill="#f9f8fe" stroke="none"/>
<path d="M 1086,865 1103,900 1106,900 1123,865 1119,868 1105,895 1090,868 Z" fill="#f9f8fe" stroke="none"/>
<path d="M 2298,861 2296,933 2300,941 2298,951 2283,950 2290,954 2298,953 2302,948 2302,937 2299,934 Z" fill="#f9f8fe" stroke="none"/>
<path d="M 2007,861 1947,865 1951,952 1966,950 1950,949 1950,864 2007,863 2007,879 1968,879 1968,899 2000,899 2003,914 2000,897 1971,896 1970,883 2007,881 Z" fill="#f9f8fe" stroke="none"/>
<path d="M 1722,864 1663,864 1666,952 1726,948 1665,949 1665,864 Z" fill="#f9f8fe" stroke="none"/>
<path d="M 2294,858 2276,861 2274,886 2250,883 2232,897 2226,921 2234,941 2229,915 2235,896 2252,885 2266,885 2278,891 2278,861 Z" fill="#f9f8fe" stroke="none"/>
<path d="M 687,846 731,877 806,888 860,883 904,857 850,883 802,885 731,874 Z" fill="#f9f8fe" stroke="none"/>
<path d="M 350,818 379,841 433,855 485,850 533,828 673,830 684,842 675,827 524,826 489,846 431,852 Z" fill="#f9f8fe" stroke="none"/>
<path d="M 1578,791 1601,808 1628,815 1665,811 1685,799 1691,811 1746,811 1690,808 1688,793 1662,809 1626,812 Z" fill="#f9f8fe" stroke="none"/>
<path d="M 1801,788 1827,807 1874,816 1910,811 1938,797 1907,809 1868,813 1827,804 Z" fill="#f9f8fe" stroke="none"/>
<path d="M 1452,764 1452,766 1534,768 1530,765 Z" fill="#f9f8fe" stroke="none"/>
<path d="M 1014,817 978,803 953,760 939,803 909,850 932,823 954,769 975,803 Z" fill="#f9f8fe" stroke="none"/>
<path d="M 244,766 243,789 253,800 296,802 344,812 342,808 294,799 255,798 246,792 249,760 Z" fill="#f9f8fe" stroke="none"/>
<path d="M 1239,759 1240,767 1248,776 1255,778 1271,777 1282,771 1289,759 1289,745 1253,745 1245,749 Z" fill="#f9f8fe" stroke="none"/>
<path d="M 2007,715 2030,731 2086,742 2098,750 2093,759 2066,762 2009,743 2029,756 2066,765 2101,756 2089,740 2035,730 Z" fill="#f9f8fe" stroke="none"/>
<path d="M 640,792 513,778 491,745 527,715 488,748 510,778 627,792 252,772 442,777 489,800 Z" fill="#f9f8fe" stroke="none"/>
<path d="M 2162,730 2151,714 2161,735 2157,771 2147,788 2115,807 2048,811 1989,791 2048,814 2112,811 2156,779 Z" fill="#f9f8fe" stroke="none"/>
<path d="M 260,698 268,760 270,714 291,733 447,742 522,711 618,705 522,708 419,740 289,730 Z" fill="#f9f8fe" stroke="none"/>
<path d="M 839,674 825,680 810,701 805,743 820,777 848,787 869,777 878,763 856,782 824,777 809,748 810,711 821,688 839,677 855,678 878,695 862,678 Z" fill="#f9f8fe" stroke="none"/>
<path d="M 2261,669 2261,751 2274,760 2293,758 2302,752 2273,757 2264,750 2263,673 2304,670 Z" fill="#f9f8fe" stroke="none"/>
<path d="M 1864,667 1839,686 1834,726 1852,755 1881,760 1897,751 1865,757 1842,740 1840,691 1863,670 1894,676 1909,703 1899,749 1911,729 1911,699 1892,671 Z" fill="#f9f8fe" stroke="none"/>
<path d="M 1641,667 1616,687 1611,723 1627,754 1656,760 1671,751 1641,757 1620,741 1618,690 1639,670 1657,670 1675,682 1683,717 1673,749 1684,730 1685,702 1671,674 Z" fill="#f9f8fe" stroke="none"/>
<path d="M 2053,671 2060,683 2115,694 2144,707 2129,696 2072,684 2056,675 2065,666 2095,665 2132,677 2120,668 2072,662 Z" fill="#f9f8fe" stroke="none"/>
<path d="M 1486,642 1437,657 1429,644 1376,647 1378,815 1437,812 1440,717 1491,693 1488,646 1488,695 1437,716 1435,812 1379,813 1378,648 1431,647 1434,663 Z" fill="#f9f8fe" stroke="none"/>
<path d="M 1575,641 1555,666 1545,708 1549,747 1570,785 1552,748 1548,707 1555,673 Z" fill="#f9f8fe" stroke="none"/>
<path d="M 1195,659 1277,644 1326,663 1346,812 1202,802 1198,730 1289,708 1268,688 1209,702 1190,664 1209,704 1285,705 1194,731 1194,798 1346,815 1334,668 1275,641 Z" fill="#f9f8fe" stroke="none"/>
<path d="M 1945,639 1968,673 1976,704 1968,758 1950,787 1971,756 1979,709 1967,665 Z" fill="#f9f8fe" stroke="none"/>
<path d="M 1503,637 1500,637 1501,709 1467,708 1457,716 1472,710 1504,713 Z" fill="#f9f8fe" stroke="none"/>
<path d="M 995,631 967,678 962,722 977,773 1012,810 980,773 965,721 969,681 Z" fill="#f9f8fe" stroke="none"/>
<path d="M 799,623 772,648 750,702 749,751 760,792 751,748 752,705 768,660 Z" fill="#f9f8fe" stroke="none"/>
<path d="M 2165,620 2165,668 2195,673 2195,758 2212,795 2260,815 2313,805 2251,811 2212,792 2198,761 2197,669 2167,668 Z" fill="#f9f8fe" stroke="none"/>
<path d="M 865,614 903,647 848,620 790,645 873,629 909,664 885,696 913,666 927,745 911,797 883,762 908,793 889,821 826,837 774,794 760,716 787,648 758,710 773,798 832,841 897,823 929,750 919,672 Z" fill="#f9f8fe" stroke="none"/>
<path d="M 2152,630 2104,613 2032,619 1996,650 1992,698 2002,710 1992,687 2002,644 2036,620 2100,615 Z" fill="#f9f8fe" stroke="none"/>
<path d="M 1943,636 1889,612 1840,616 1805,634 1783,658 1767,701 1771,744 1786,775 1770,699 1782,665 1808,635 1843,618 1890,615 Z" fill="#f9f8fe" stroke="none"/>
<path d="M 1050,612 983,671 982,754 1047,814 1138,810 1175,774 1139,742 1071,763 1038,707 1078,662 1138,684 1175,650 1161,632 1136,682 1073,660 1035,707 1065,764 1146,750 1173,775 1151,799 1054,813 986,757 981,685 1020,630 1097,610 1157,631 Z" fill="#f9f8fe" stroke="none"/>
<path d="M 545,606 533,609 512,621 502,630 494,643 513,639 513,637 501,639 500,637 518,620 531,612 545,608 Z" fill="#f9f8fe" stroke="none"/>
<path d="M 285,612 284,664 317,686 430,682 454,657 427,680 434,670 391,683 307,677 288,659 291,612 358,621 331,615 377,613 Z" fill="#f9f8fe" stroke="none"/>
<path d="M 271,597 262,609 245,661 250,723 247,661 Z" fill="#f9f8fe" stroke="none"/>
<path d="M 1140,603 1096,595 1073,596 1034,605 1002,626 1030,610 1059,601 1100,598 1130,605 Z" fill="#f9f8fe" stroke="none"/>
<path d="M 280,595 278,595 268,617 268,628 273,633 275,633 276,614 278,609 Z" fill="#f9f8fe" stroke="none"/>
<path d="M 948,583 972,630 975,631 983,620 973,625 952,587 971,583 971,581 Z" fill="#f9f8fe" stroke="none"/>
<path d="M 844,575 892,596 916,618 952,692 955,667 926,613 953,670 950,682 916,615 887,590 Z" fill="#f9f8fe" stroke="none"/>
<path d="M 715,575 643,582 590,595 703,578 695,587 Z" fill="#f9f8fe" stroke="none"/>
<path d="M 1160,574 1051,583 1149,578 Z" fill="#f9f8fe" stroke="none"/>
<path d="M 1535,571 1529,576 1502,621 1498,635 1500,635 1507,618 Z" fill="#f9f8fe" stroke="none"/>
<path d="M 857,571 857,573 876,577 896,586 925,611 915,598 893,581 883,576 Z" fill="#f9f8fe" stroke="none"/>
<path d="M 2260,562 2260,618 2307,620 2309,668 2310,621 2305,616 2263,615 Z" fill="#f9f8fe" stroke="none"/>
<path d="M 1748,547 1750,807 Z" fill="#f9f8fe" stroke="none"/>
<path d="M 1631,544 1592,571 1560,623 1537,693 1536,765 1539,697 1563,623 1597,568 Z" fill="#f9f8fe" stroke="none"/>
<path d="M 1746,543 1684,555 1682,624 1630,612 1602,619 1580,636 1608,619 1635,614 1686,630 1686,555 Z" fill="#f9f8fe" stroke="none"/>
<path d="M 1208,541 1155,548 1106,559 Z" fill="#f9f8fe" stroke="none"/>
<path d="M 685,527 629,539 617,544 615,548 682,532 Z" fill="#f9f8fe" stroke="none"/>
<path d="M 1593,524 1568,550 1572,540 1570,538 1555,563 1550,578 Z" fill="#f9f8fe" stroke="none"/>
<path d="M 771,512 738,512 708,519 705,524 716,526 745,522 751,518 710,522 742,514 760,517 Z" fill="#f9f8fe" stroke="none"/>
<path d="M 1465,497 1297,527 Z" fill="#f9f8fe" stroke="none"/>
<path d="M 1539,496 1466,517 1462,521 1538,499 Z" fill="#f9f8fe" stroke="none"/>
<path d="M 1148,322 1148,324 1242,323 1242,321 Z" fill="#f9f8fe" stroke="none"/>
<path d="M 1213,888 1216,942 1225,949 1240,949 1256,939 1260,948 1273,949 1268,889 1255,889 1254,927 1247,935 1235,937 1227,927 1227,889 Z" fill="#505d92" stroke="none"/>
<path d="M 2102,891 2093,900 2088,915 2095,939 2112,949 2130,949 2141,944 2147,934 2135,932 2127,938 2115,938 2104,923 2151,921 2145,896 2130,887 Z" fill="#505d92" stroke="none"/>
<path d="M 2061,887 2061,947 2074,948 2076,947 2076,904 2074,903 2076,902 2076,888 Z" fill="#505d92" stroke="none"/>
<path d="M 2049,887 2041,888 2030,898 2026,888 2015,888 2015,947 2030,948 2030,910 2035,904 2049,900 Z" fill="#505d92" stroke="none"/>
<path d="M 1541,887 1531,888 1521,897 1518,896 1517,889 1505,888 1505,948 1518,948 1520,909 1530,901 1541,899 Z" fill="#505d92" stroke="none"/>
<path d="M 1438,893 1441,903 1467,897 1475,911 1441,916 1434,926 1436,941 1448,949 1462,949 1476,940 1480,948 1493,949 1489,905 1484,894 1472,887 1452,887 Z" fill="#505d92" stroke="none"/>
<path d="M 1322,887 1312,888 1301,897 1298,889 1290,888 1286,892 1286,947 1301,948 1301,910 1307,903 1322,898 Z" fill="#505d92" stroke="none"/>
<path d="M 1158,888 1150,892 1140,905 1139,929 1143,937 1157,948 1182,948 1196,937 1200,929 1199,904 1191,893 1182,888 Z" fill="#505d92" stroke="none"/>
<path d="M 2213,890 2198,886 2177,896 2176,888 2164,888 2164,947 2177,948 2178,910 2188,900 2197,899 2205,908 2205,948 2219,948 2219,903 Z" fill="#505d92" stroke="none"/>
<path d="M 1829,887 1817,895 1814,910 1819,917 1846,926 1849,934 1836,939 1816,932 1812,941 1828,949 1852,948 1863,938 1861,920 1831,909 1827,902 1837,896 1857,902 1861,893 1848,887 Z" fill="#505d92" stroke="none"/>
<path d="M 1759,889 1743,908 1746,936 1765,949 1793,945 1801,934 1788,932 1771,939 1761,933 1757,923 1804,921 1798,897 1783,887 Z" fill="#505d92" stroke="none"/>
<path d="M 1589,887 1577,895 1575,912 1605,925 1610,933 1603,939 1576,933 1573,940 1589,949 1612,948 1624,936 1623,923 1591,909 1588,902 1597,896 1617,902 1621,893 1608,887 Z" fill="#505d92" stroke="none"/>
<path d="M 1879,867 1879,886 1871,888 1871,898 1879,899 1880,941 1889,949 1911,946 1909,935 1898,936 1894,932 1894,899 1907,898 1907,887 1894,886 1894,867 Z" fill="#505d92" stroke="none"/>
<path d="M 2005,865 1951,865 1951,948 1966,948 1967,913 1999,913 1999,901 1966,900 1966,878 2004,877 Z" fill="#505d92" stroke="none"/>
<path d="M 1667,865 1666,948 1716,948 1726,943 1733,930 1729,914 1720,906 1730,890 1726,873 1713,865 Z" fill="#505d92" stroke="none"/>
<path d="M 1378,867 1357,889 1357,923 1377,946 1407,948 1426,930 1413,925 1398,936 1381,932 1371,916 1371,896 1387,878 1401,878 1413,888 1424,879 1408,866 Z" fill="#505d92" stroke="none"/>
<path d="M 1067,865 1097,919 1097,948 1111,948 1112,919 1142,865 1125,866 1105,904 1084,866 Z" fill="#505d92" stroke="none"/>
<path d="M 2294,862 2280,862 2278,895 2266,887 2251,887 2235,900 2231,923 2245,946 2267,949 2280,939 2284,948 2298,949 2294,933 Z" fill="#505d92" stroke="none"/>
<path d="M 1549,862 1549,874 1553,877 1552,888 1553,890 1559,890 1561,888 1561,884 1564,874 1564,863 1563,862 Z" fill="#505d92" stroke="none"/>
<path d="M 728,692 724,692 716,742 717,781 719,781 719,739 Z" fill="#505d92" stroke="none"/>
<path d="M 81,1184 82,1190 94,1195 110,1210 120,1227 143,1197 133,1184 123,1188 117,1184 106,1190 95,1189 99,1179 Z" fill="#d8d5ec" stroke="none"/>
<path d="M 120,1145 113,1158 114,1163 118,1170 127,1168 130,1171 133,1171 133,1167 128,1158 127,1153 125,1151 124,1147 122,1145 Z" fill="#d8d5ec" stroke="none"/>
<path d="M 575,762 575,765 577,765 578,767 603,767 625,764 625,762 Z" fill="#d8d5ec" stroke="none"/>
<path d="M 341,665 341,669 344,668 345,670 353,670 354,668 359,668 360,670 363,668 367,670 370,668 385,670 389,667 406,667 406,665 Z" fill="#d8d5ec" stroke="none"/>
<path d="M 378,612 378,614 398,617 389,620 389,622 425,622 425,620 414,619 413,617 434,614 434,612 Z" fill="#d8d5ec" stroke="none"/>
<path d="M 812,507 810,507 807,503 766,508 765,511 781,511 782,514 802,512 805,509 812,509 Z" fill="#d8d5ec" stroke="none"/>
<path d="M 1616,472 1616,474 1631,474 1632,480 1676,473 1676,471 Z" fill="#d8d5ec" stroke="none"/>
<path d="M 39,6 34,22 2,45 24,59 42,85 54,62 79,43 52,25 42,6 Z" fill="#d8d5ec" stroke="none"/>
<path d="M 2517,1 2508,21 2477,45 2506,65 2519,89 2531,65 2560,43 2535,28 Z" fill="#d8d5ec" stroke="none"/>
</svg>